<?xml version="1.0" encoding="UTF-8" standalone="no"?>
<!-- Created with Inkscape (http://www.inkscape.org/) -->

<svg
   width="48"
   height="48"
   viewBox="0 0 12.7 12.7"
   version="1.1"
   id="svg14538"
   inkscape:version="1.2 (dc2aedaf03, 2022-05-15)"
   sodipodi:docname="gear.svg"
   xmlns:inkscape="http://www.inkscape.org/namespaces/inkscape"
   xmlns:sodipodi="http://sodipodi.sourceforge.net/DTD/sodipodi-0.dtd"
   xmlns="http://www.w3.org/2000/svg"
   xmlns:svg="http://www.w3.org/2000/svg">
  <sodipodi:namedview
     id="namedview14540"
     pagecolor="#ffffff"
     bordercolor="#666666"
     borderopacity="1.0"
     inkscape:showpageshadow="2"
     inkscape:pageopacity="0.0"
     inkscape:pagecheckerboard="0"
     inkscape:deskcolor="#d1d1d1"
     inkscape:document-units="mm"
     showgrid="false"
     inkscape:zoom="17.396097"
     inkscape:cx="23.654732"
     inkscape:cy="16.153049"
     inkscape:window-width="1920"
     inkscape:window-height="1017"
     inkscape:window-x="-8"
     inkscape:window-y="-8"
     inkscape:window-maximized="1"
     inkscape:current-layer="layer1" />
  <defs
     id="defs14535" />
  <g
     inkscape:label="Layer 1"
     inkscape:groupmode="layer"
     id="layer1">
    <path
       style="fill:#e9e9e9;fill-opacity:1;stroke:none;stroke-width:0.546214px;stroke-linecap:butt;stroke-linejoin:miter;stroke-opacity:1"
       d="m 1.1100394,10.116837 1.6721928,1.550502 0.528996,-0.766809 1.7148744,0.786911 0.107705,0.951723 2.5404,0.04727 -0.096094,-0.939599 1.8797554,-0.869779 0.821444,0.660313 1.532615,-1.7038012 -0.689313,-0.7741761 0.700444,-1.8727542 0.736959,0.082866 L 12.52895,5.0276918 11.758437,5.1024251 10.98464,3.3438324 11.753469,2.5696561 10.05181,0.97219839 9.4404125,1.8249429 7.5793151,1.0217641 7.8365266,0.13786794 4.3600119,0.25203507 4.7245281,1.1317878 2.5556908,2.3474517 1.5714497,1.7621777 0.31718517,3.7402015 1.3631664,4.0546293 0.90175609,5.5254869 0.16391561,5.5957691 0.14942144,8.1102692 1.1461549,8.2052572 1.8661335,9.6117119 Z"
       id="path16284"
       sodipodi:nodetypes="ccccccccccccccccccccccccccccccccc" />
    <ellipse
       style="opacity:0.924;fill:#000000;fill-opacity:1;stroke:none;stroke-width:0.464797;stroke-linecap:round"
       id="path16338"
       cx="6.3859897"
       cy="6.3530674"
       rx="3.2098799"
       ry="3.1575677" />
  </g>
</svg>
